<svg id="logo" height= "25%" xmlns="http://www.w3.org/2000/svg" xml:space="preserve"  version="1.1" shape-rendering="geometricPrecision" text-rendering="geometricPrecision" image-rendering="optimizeQuality" fill-rule="evenodd" clip-rule="evenodd"
viewBox="0 420 1300 135"
 xmlns:xlink="http://www.w3.org/1999/xlink">
<style type="text/css">
  .logo{stroke:#fff; stroke-width:1; stroke-miterlimit:1;}
<defs>
  <style>
    .logo{
      stroke-dasharray:500;
      stroke-dashoffset:0;

      -webkit-animation :dash 5s linear forwards, fillname 5s ease 5s forwards;
      -moz-animation :dash 5s linear forwards, fillname 5s ease 5s forwards;
      -ms-animation :dash 5s linear forwards, fillname 5s ease 5s forwards;
      -o-animation :dash 5s linear forwards, fillname 5s ease 5s forwards;
      animation :dash 5s linear forwards, fillname 5s ease 5s forwards;


    }

    @-webkit-keyframes dash {
    from{
      stroke-dashoffset:500;
    }
    to{
      stroke-dashoffset:0;
    }
    }
    @-webkit-keyframes fillname {
      0% {
        fill-opacity: 0;
      }

      100% {
        fill-opacity: 1;
      }
    }






    <!-- #logo:hover .logo, #logo:hover .circle{
      fill:rgb(252,3,48);
      stroke:rgb(252,3,48);
      transition: 1s;
    } -->
    <!-- #logo.changecolor .logo, #logo.changecolor .circle{
      fill:#fff;
      stroke:rgb(252,3,48);
      -webkit-animation: transform(rotate)

    } -->


  </style>
</defs>
</style>


<g>
<path class="logo" fill="#fff" fill-opacity="0" d="M41 526c0,-1 0,-1 0,-2 0,-1 0,-3 1,-4 0,-1 0,-2 0,-3 1,0 1,-1 1,-1 4,-11 8,-23 13,-34 4,-11 9,-23 13,-34 1,-2 2,-3 2,-4 1,0 2,0 3,1 0,0 1,1 1,3 0,2 1,3 1,5 0,1 0,1 -1,2 0,1 0,2 0,2 -1,2 -1,3 -2,4 -1,2 -1,3 -2,5 -4,10 -8,20 -12,31 -4,10 -8,21 -10,32 -1,1 -2,1 -3,1 -1,0 -2,0 -3,0 0,-1 -1,-1 -1,-2 0,-1 -1,-1 -1,-2l0 0zm45 -47c0,-1 0,-2 0,-3 0,-1 1,-2 1,-2 0,-1 0,-1 0,-2 0,0 1,-1 1,-2 0,-1 0,-2 1,-2 0,-1 0,-2 0,-2 2,-4 3,-6 5,-6 1,0 2,1 2,2 1,2 1,3 1,6 0,2 0,4 -1,7 0,3 -1,5 -2,7 0,2 -2,3 -3,4 -1,0 -3,0 -4,-2 0,-1 0,-2 -1,-2 0,-1 0,-2 0,-3zm109 52c-1,0 -2,0 -3,0 0,0 -1,-1 -2,-1 -1,-1 -1,-1 -2,-2 0,0 -1,-1 -1,-1l1 1c-1,-1 -2,-2 -2,-3 0,-1 0,-2 0,-3 0,-2 0,-3 1,-5 0,-2 1,-3 2,-5 0,-1 1,-2 2,-4 1,-2 2,-4 3,-6 1,-2 2,-4 3,-6 1,-2 1,-3 2,-4l0 -1c-1,1 -3,2 -5,3 -3,2 -6,4 -8,7 -3,2 -6,5 -10,8 -3,2 -6,5 -8,8 -3,2 -6,5 -8,6 -2,2 -3,4 -4,4 -2,1 -4,1 -5,0 0,-1 -1,-3 -1,-5 0,-2 0,-4 1,-6 0,-2 0,-4 1,-6 1,-2 1,-5 2,-7 0,-2 1,-3 1,-5 0,0 0,0 1,-1 0,0 0,0 0,0 -1,0 -3,0 -4,1 -1,2 -3,3 -4,4 -2,2 -3,4 -4,6 -2,2 -3,4 -5,6 -1,2 -3,4 -4,6 -1,2 -3,3 -4,5 -1,1 -3,2 -4,3 -1,1 -2,1 -3,1 -2,0 -4,-1 -5,-2 0,-1 0,-1 0,-2 0,-1 0,-1 0,-1 1,-1 1,-2 2,-4 1,-2 2,-3 3,-5 1,-2 2,-5 3,-7 1,-2 2,-4 3,-6 1,-2 2,-4 3,-6 1,-1 1,-2 2,-3l0 0c0,-1 1,-2 1,-3 1,-2 2,-3 3,-4 1,-1 2,-2 2,-3 1,-1 1,-2 2,-2l3 0c1,2 1,3 1,4 0,1 0,2 0,3 0,1 -1,2 -1,3 -1,1 -1,2 -2,3 0,0 -1,1 -1,1 0,1 -1,2 -1,2 3,-3 6,-5 8,-7 3,-2 5,-3 6,-5 2,-1 4,-2 5,-2 1,-1 2,-1 2,-1 2,0 2,0 3,1 0,0 1,1 1,2 0,1 0,2 -1,3 0,2 0,3 -1,5l1 0c-1,2 -1,4 -2,6 0,3 -1,5 -1,7l0 2c1,-1 2,-1 3,-2 0,0 1,-1 2,-2 1,-1 2,-2 4,-2 1,-1 1,-2 2,-2 1,-1 2,-2 4,-3 1,-1 3,-3 5,-4 1,-1 3,-2 4,-3 1,-1 2,-2 2,-2l0 0c1,0 1,-1 2,-1 1,-1 3,-2 4,-3 1,-1 2,-1 4,-2 1,-1 2,-1 2,-2l0 0c1,0 3,-1 4,-1 2,0 3,1 4,2 1,1 2,3 2,5 0,0 0,1 -1,1 0,1 0,2 0,2 0,1 -1,2 -2,3 0,1 -1,3 -1,4 -2,2 -3,5 -5,8 -1,3 -2,5 -4,8 -1,3 -2,6 -2,9 -1,3 -1,6 -1,10zm95 1c0,0 0,0 -1,-1 0,0 0,0 -1,0 0,-1 -1,-1 -1,-1 0,0 0,-1 -1,-1l1 0c-1,0 -1,-1 -1,-2 -1,-1 -1,-2 -1,-3 0,-2 1,-4 1,-7 1,-2 1,-5 2,-8 1,-3 2,-6 3,-9 1,-3 2,-6 4,-9 1,-3 2,-5 2,-7 1,-2 2,-4 2,-5 1,-1 2,-3 3,-5 1,-3 2,-5 3,-8 1,-3 2,-5 3,-8 1,-3 2,-5 3,-8 2,-2 2,-4 3,-6 1,-2 2,-4 2,-5 3,-1 5,-1 6,0 1,0 1,2 1,3 0,2 0,5 -2,9 -1,3 -3,7 -4,11 -1,2 -2,4 -3,5 -1,2 -2,4 -2,6 -1,1 -2,3 -2,4 0,2 -1,3 -1,4 1,0 3,0 4,0 1,0 2,-1 4,-1 1,0 3,0 4,0 1,-1 2,-1 4,-1 0,0 1,-1 1,-1 1,0 2,0 2,0 6,-1 11,-2 15,-4 4,-2 7,-4 10,-7 3,-3 5,-6 7,-10 2,-4 4,-9 6,-14 1,-1 1,-2 1,-3 1,-1 1,-2 2,-3 1,-2 2,-3 3,-3 1,0 2,1 2,2 1,1 2,3 2,4 0,2 0,3 0,4 0,0 0,1 -1,2 0,0 0,1 -1,2 0,1 -1,1 -1,2 -1,1 -1,2 -1,2 0,0 0,0 0,1 -1,1 -1,1 -1,2 0,1 -1,1 -1,2 0,1 0,1 0,1 0,1 1,1 1,2 1,1 1,1 1,1 0,1 0,2 0,3 0,1 -1,3 -2,4 0,1 -1,2 -2,3 -1,1 -2,2 -3,3 -1,2 -2,3 -4,4 -1,2 -1,3 -2,4 -3,8 -6,15 -8,23 -2,8 -4,16 -5,24 0,0 -1,1 -1,1 0,0 -1,1 -1,1 -1,0 -1,0 -2,0 -1,0 -1,0 -2,0 0,-2 0,-5 0,-8 1,-3 1,-7 2,-10 1,-4 2,-8 2,-12 1,-3 2,-7 3,-10 0,-3 1,-5 1,-6 1,-1 1,-2 1,-2l-2 0c-3,0 -6,0 -10,1 -4,1 -8,1 -12,2 -4,1 -8,2 -12,3 -4,1 -7,2 -9,3 -1,2 -2,5 -3,8 -1,2 -1,5 -2,8 -1,4 -2,8 -3,12 -1,4 -3,8 -6,12zm136 -17c0,0 0,0 0,0 0,0 0,0 0,0 0,0 0,0 0,0 0,-1 0,-1 -1,-1 0,1 -1,1 -2,2 -1,2 -3,3 -5,5 -2,2 -4,4 -6,5 -2,2 -4,3 -7,4 -2,2 -4,2 -6,2 -4,0 -7,-1 -10,-4 -1,-1 -2,-2 -3,-4 0,-1 0,-3 0,-5 0,-3 0,-7 1,-10 1,-4 3,-8 5,-12 2,-4 4,-7 7,-11 2,-4 5,-7 8,-10 3,-2 6,-5 9,-6 3,-2 6,-3 9,-3 2,0 4,0 6,1 2,1 4,3 6,5 1,2 2,3 3,5 0,1 0,3 0,4 0,3 0,5 -1,7 0,2 -1,4 -2,7 -1,2 -2,5 -3,7 -1,3 -1,6 0,8 0,2 1,4 3,4 -1,0 -1,0 0,0 0,0 0,0 0,0 0,0 1,0 1,0 0,0 0,0 0,0 2,0 4,0 7,-1 3,-1 6,-2 9,-4 3,-1 6,-3 9,-4 3,-2 5,-3 7,-4 3,-1 5,-1 6,0 1,1 1,2 0,4 -1,1 -3,3 -6,5 -3,2 -6,4 -9,6 -4,2 -7,3 -11,5 -4,1 -7,2 -10,2 -4,0 -7,-1 -9,-2 -3,-1 -4,-3 -5,-7zm-33 8c1,1 2,2 3,2 2,0 3,-1 6,-2 2,-1 4,-3 7,-6 2,-2 5,-4 7,-7 3,-4 5,-7 7,-10 2,-4 3,-7 4,-11 1,-4 2,-8 2,-12 0,0 0,-1 0,-1 0,-1 0,-1 0,-2 -1,0 -1,0 -2,0 -2,0 -4,0 -6,2 -3,2 -5,4 -8,7 -2,2 -5,6 -7,9 -2,3 -5,7 -7,10 -1,4 -3,7 -4,10 -1,4 -2,6 -2,9 0,1 0,1 0,2zm92 7l0 0 0 0zm0 0c0,0 0,-1 0,-3 0,-2 0,-4 0,-7 1,-3 1,-6 2,-9 0,-3 1,-7 2,-10 0,-3 1,-6 2,-8 1,-2 1,-4 2,-5 1,0 1,-1 2,-1 1,0 1,0 2,0 0,1 0,1 1,2 0,0 1,1 1,1 0,1 0,1 0,1 1,0 1,1 1,1 2,-3 4,-6 7,-9 3,-2 5,-5 8,-7 1,0 2,0 3,-1 1,0 3,-1 5,-1 2,-1 3,-1 5,-2 2,0 4,0 5,0 2,0 3,0 4,1 1,0 2,1 2,2 0,2 -1,3 -2,5 -3,0 -7,1 -10,2 -3,1 -5,3 -8,6 -3,2 -5,4 -8,7 -2,3 -4,6 -6,9 -2,3 -4,6 -5,9 -2,3 -3,6 -5,8 -1,3 -3,6 -4,8 -1,2 -2,2 -3,2 0,0 -1,0 -1,0 -1,0 -2,0 -2,-1l0 0 0 0zm72 0l0 0 0 0zm0 0c0,0 0,-1 0,-3 0,-2 0,-4 1,-7 0,-3 1,-6 1,-9 1,-3 1,-7 2,-10 1,-3 1,-6 2,-8 1,-2 2,-4 3,-5 0,0 1,-1 1,-1 1,0 1,0 2,0 0,1 1,1 1,2 1,0 1,1 1,1 1,1 1,1 1,1 0,0 0,1 0,1 3,-3 5,-6 7,-9 3,-2 6,-5 9,-7 0,0 1,0 3,-1 1,0 2,-1 4,-1 2,-1 4,-1 6,-2 2,0 3,0 5,0 1,0 3,0 4,1 1,0 1,1 1,2 0,2 -1,3 -2,5 -3,0 -6,1 -9,2 -3,1 -6,3 -9,6 -2,2 -5,4 -7,7 -2,3 -5,6 -7,9 -2,3 -3,6 -5,9 -2,3 -3,6 -4,8 -2,3 -3,6 -4,8 -2,2 -3,2 -4,2 0,0 0,0 -1,0 -1,0 -1,0 -2,-1l1 0 -1 0zm69 -2c2,-7 4,-13 6,-18 2,-5 4,-10 6,-13 2,-3 3,-6 5,-7 1,-2 2,-2 3,-2 1,0 1,1 1,3 1,2 0,5 -1,9 -1,3 -2,8 -4,13 -3,6 -5,12 -9,18 -1,1 -3,1 -4,1 -1,-1 -2,-2 -3,-3l0 -1zm20 -54c0,0 0,-1 0,-1 0,-1 0,-1 0,-2 0,-1 0,-1 0,-2 0,0 0,-1 1,-1 0,0 1,0 2,-1 0,0 1,0 1,0 2,0 4,1 4,2 1,1 2,2 2,4 0,1 -1,2 -2,4 -1,1 -2,2 -3,2 -1,0 -2,-1 -3,-1 0,-1 -1,-2 -2,-4l0 0zm27 56c-1,-1 -1,-2 -1,-3 0,0 0,-1 1,-2 1,-1 2,-2 4,-3 1,-1 3,-2 5,-3 2,-1 3,-2 6,-3 2,-1 3,-2 5,-3l0 0c2,-1 4,-2 5,-3 2,0 3,-1 3,-1 3,-2 4,-4 4,-5 0,0 -1,-1 -1,-1 -1,-1 -2,-1 -4,-1 -1,-1 -3,-1 -4,-1 -2,-1 -4,-1 -5,-1 -2,0 -4,-1 -6,-1 -2,0 -4,-1 -5,-1 -2,-1 -3,-2 -4,-2 -1,-1 -1,-2 -1,-3 0,-1 0,-2 1,-4 1,-1 3,-2 5,-4l0 1c1,-1 2,-2 5,-4 2,-1 4,-3 6,-4 3,-2 5,-3 8,-4 2,-2 4,-3 6,-3 1,0 2,0 3,0 1,0 1,1 2,1 1,1 1,1 2,2 0,1 1,1 1,2 0,1 -1,3 -3,4 -1,0 -2,1 -3,1 -1,1 -2,2 -3,2 -4,2 -7,4 -10,5 -3,2 -5,3 -7,5 5,1 9,1 13,2 3,1 6,2 8,3 3,1 4,2 5,4 1,1 2,2 2,4 0,2 -1,4 -3,6 -2,2 -5,4 -8,6 -3,2 -6,3 -9,5 -4,2 -7,3 -10,4 -4,1 -6,2 -9,3 -2,0 -3,0 -4,0l0 0zm68 0c-3,-1 -5,-3 -6,-5 -1,-2 -2,-4 -2,-6 0,-3 1,-5 1,-8 1,-2 3,-5 4,-7 2,-3 4,-6 6,-8 2,-2 4,-5 6,-7 2,-1 4,-3 5,-4 2,-2 4,-2 6,-2 0,-1 1,-1 2,-1 0,0 1,0 2,0 3,0 5,1 7,1 2,1 3,2 5,3 1,2 2,3 2,5 1,1 1,3 1,5 0,3 0,5 -1,8 -1,3 -2,5 -3,8 -2,2 -4,5 -6,7 -2,3 -4,5 -6,7 -3,1 -5,3 -8,4 -2,1 -5,1 -8,1 -2,0 -5,0 -7,-1zm1 -9c0,2 2,3 3,3 2,0 4,0 6,-1 2,-1 4,-3 6,-4 2,-2 4,-4 6,-6 2,-2 4,-4 5,-6 2,-2 3,-4 4,-6 1,-2 2,-4 2,-6 0,-1 -1,-2 -2,-3 -1,-1 -3,-1 -5,-1 -1,0 -3,0 -4,0 0,1 -1,1 -1,1 0,1 -1,1 -1,1 -2,2 -4,4 -6,6 -2,2 -4,4 -6,6 -2,2 -4,5 -5,7 -2,2 -2,5 -2,7 0,1 0,2 0,2zm99 8c0,-2 0,-4 0,-6 0,-2 1,-4 1,-6 1,-2 2,-3 3,-5 1,-2 1,-4 2,-5 2,-3 3,-6 4,-9 2,-3 2,-5 2,-8 0,-1 0,-2 0,-3 -2,0 -4,1 -7,2 -2,1 -5,3 -8,5 -2,2 -5,5 -8,8 -3,3 -6,5 -9,8 -2,3 -5,6 -8,8 -2,2 -4,4 -6,5 -2,2 -4,3 -6,2 -1,0 -2,-1 -3,-3 0,0 1,-1 2,-3 1,-2 2,-4 4,-7 1,-3 3,-7 5,-10 2,-4 3,-7 5,-10 2,-3 3,-5 4,-8 2,-2 3,-3 3,-3 1,1 3,2 3,3 1,1 1,2 1,3 0,1 0,2 0,3 -1,1 -1,2 -1,3 0,0 -1,1 -1,1 0,0 0,1 0,1 2,-1 4,-3 7,-5 3,-2 6,-3 9,-5 3,-2 6,-3 9,-4 3,-1 5,-2 8,-2 2,0 3,1 5,2 1,1 2,3 2,5 0,2 -1,4 -1,6 -1,3 -2,5 -3,9l0 0c0,0 -1,0 -1,1 0,1 -1,2 -1,3 -1,1 -1,2 -2,3 0,1 -1,2 -1,4 -1,2 -2,4 -3,6 -1,2 -1,3 -2,3 0,0 0,1 0,1 0,0 0,0 0,1 0,0 0,0 0,0 0,2 0,3 -1,4 0,2 -1,3 -1,4 -1,0 -2,1 -2,1 -1,0 -1,-1 -2,-1 0,0 -1,-1 -1,-1 -1,0 -1,-1 -1,-1l0 0z"/>
</g>
<g>
<path class="logo" fill="#fff" fill-opacity="0" d="M946 530c-5,-2 -8,-4 -10,-7 -3,-3 -4,-7 -4,-11 0,-3 1,-6 2,-9 1,-4 3,-7 5,-11 2,-3 4,-7 7,-10 2,-4 5,-7 8,-10 3,-4 6,-7 9,-10 3,-3 6,-6 8,-8 3,-3 6,-5 8,-7 2,-2 4,-3 6,-4 3,-2 6,-3 8,-3 2,0 3,1 4,1 1,1 2,2 3,3 1,2 1,3 2,5 0,2 0,3 0,5 0,3 0,5 -1,8 -1,3 -1,5 -2,7 -1,1 -3,3 -4,3 -1,1 -2,1 -3,0 0,-1 0,-3 0,-4 0,-2 1,-3 1,-5 0,-2 1,-4 1,-6 0,-2 1,-3 1,-5 0,0 0,-1 0,-1 0,0 0,-1 -1,-1 -2,0 -4,0 -7,2 -2,1 -5,2 -8,5 -3,2 -6,4 -9,7 -3,4 -6,7 -8,10 -3,4 -6,8 -8,11 -3,4 -5,8 -7,11 -2,4 -3,8 -4,11 -1,3 -2,6 -2,9 0,2 1,4 2,5 1,1 3,2 5,2 1,0 2,0 3,0 3,-1 5,-1 7,-2 2,-1 5,-3 7,-4 2,-1 4,-3 6,-5 2,-1 4,-3 6,-5 3,-2 6,-5 9,-7 3,-3 6,-5 9,-6 1,-1 2,-1 3,0 1,0 2,0 3,1 0,0 1,1 1,2 0,1 0,2 0,3 -1,1 -2,3 -4,5 -2,2 -5,4 -8,6 -3,3 -6,5 -10,7 -3,3 -7,5 -11,6 -4,2 -7,4 -11,5 -3,1 -6,2 -8,2 -1,0 -2,0 -3,0 0,-1 -1,-1 -1,-1zm78 -2c0,-1 0,-1 0,-2 0,0 0,-1 0,-1 0,-1 1,-2 1,-3 1,-2 2,-3 3,-5 1,-1 1,-3 2,-4 1,-2 1,-3 2,-4 0,0 1,-2 2,-4 2,-2 3,-4 5,-7 0,-1 1,-3 2,-4 1,-1 2,-3 3,-4 0,-1 1,-3 2,-4 0,-1 1,-2 1,-2 1,-2 2,-3 3,-5 1,-2 2,-3 3,-5 2,-3 4,-6 6,-9 2,-4 3,-7 5,-10 2,-3 4,-5 6,-8 2,-2 3,-4 5,-5 1,-1 3,-2 4,-1 1,0 2,1 2,3 1,0 1,1 0,2 0,1 0,2 0,2 0,1 -1,2 -2,4 -1,1 -2,3 -3,4 -1,2 -2,3 -3,4 -1,2 -1,3 -2,3 0,1 0,1 0,1 0,1 -1,1 -1,1 -1,2 -2,3 -3,5 -1,2 -3,5 -4,7 -2,2 -3,5 -5,7 -1,3 -3,5 -4,7 -2,3 -3,5 -4,7 -1,1 -2,3 -3,4 2,-1 4,-2 6,-3 1,-1 3,-2 5,-4 2,-1 4,-3 6,-4 2,-1 4,-2 5,-3 3,0 5,1 7,2 1,2 3,4 3,6 0,1 0,2 0,4 0,2 0,4 0,6 0,2 0,4 0,5 0,2 0,3 0,4 0,1 1,1 1,2 0,0 1,1 1,2 1,1 1,2 2,2 0,1 1,2 1,3 1,1 1,2 2,2 0,1 0,2 -1,3 -2,0 -4,0 -6,0 -1,-1 -3,-2 -4,-3 -1,-1 -2,-3 -3,-4 -1,-2 -1,-4 -2,-5l0 0c0,-1 0,-2 0,-3 0,-2 0,-4 0,-6 0,-1 -1,-3 -1,-5 0,-2 0,-3 0,-5 0,0 0,0 -1,0 0,0 0,0 0,0 -1,0 -2,0 -3,1 -1,0 -2,1 -3,2 -1,1 -3,2 -4,4 -2,1 -3,2 -4,3 -1,2 -3,2 -3,3 -1,1 -2,2 -2,2 -1,0 -1,1 -2,2 -1,1 -2,2 -4,3 -1,1 -2,3 -3,4 -2,1 -3,3 -4,4 -1,1 -2,1 -2,2 -1,1 -2,2 -2,2 -2,0 -3,1 -5,0 -1,0 -2,-1 -3,-2l0 0zm89 2c-2,-1 -4,-3 -6,-5 -1,-2 -1,-4 -1,-6 0,-3 0,-5 1,-8 1,-2 2,-5 4,-7 1,-3 3,-6 5,-8 2,-2 4,-5 6,-7 2,-1 4,-3 6,-4 2,-2 4,-2 5,-2 1,-1 2,-1 2,-1 1,0 2,0 3,0 2,0 5,1 7,1 2,1 3,2 4,3 2,2 2,3 3,5 1,1 1,3 1,5 0,3 0,5 -1,8 -1,3 -2,5 -4,8 -1,2 -3,5 -5,7 -2,3 -4,5 -7,7 -2,1 -4,3 -7,4 -3,1 -6,1 -8,1 -3,0 -5,0 -8,-1zm2 -9c0,2 1,3 3,3 1,0 3,0 5,-1 2,-1 4,-3 6,-4 2,-2 4,-4 7,-6 2,-2 3,-4 5,-6 1,-2 3,-4 4,-6 1,-2 1,-4 1,-6 0,-1 0,-2 -1,-3 -1,-1 -3,-1 -6,-1 -1,0 -2,0 -3,0 -1,1 -1,1 -1,1 -1,1 -1,1 -2,1 -1,2 -3,4 -6,6 -2,2 -4,4 -6,6 -2,2 -3,5 -5,7 -1,2 -2,5 -2,7 0,1 0,2 1,2zm88 -13c0,0 0,0 0,0l0 0zm5 22c-1,-1 -3,-3 -3,-4 -1,-2 -2,-4 -3,-6 0,-1 0,-3 -1,-5 0,-2 0,-4 0,-6 -2,2 -4,4 -6,6 -1,2 -3,4 -5,6 -1,1 -3,3 -4,5 -2,1 -3,3 -4,4 -2,1 -3,1 -5,0 -1,0 -3,0 -4,-1 -1,-1 -2,-2 -2,-3 0,-2 0,-3 0,-5l0 0c2,-4 3,-9 5,-14 2,-6 4,-11 6,-15 1,-3 2,-4 4,-4 1,0 2,0 3,2 1,1 2,3 2,5 0,0 0,1 0,1 0,1 -1,1 -1,2 0,1 0,1 -1,2 0,1 0,2 -1,3 0,2 -1,3 -1,4 -1,2 -1,3 -2,4 0,0 0,1 0,1 0,1 0,1 -1,1 2,-2 4,-4 6,-5 1,-2 3,-4 5,-6l0 0c1,-1 2,-3 3,-4 1,-1 2,-3 3,-4 3,-3 5,-4 6,-4 1,0 2,0 3,0 0,1 1,2 1,3 0,1 1,2 1,3 0,1 0,3 0,4 0,2 0,3 0,4 0,2 0,3 0,4 0,2 -1,3 -1,4 0,1 0,2 0,3 0,0 0,1 0,1 0,0 0,1 0,1 0,0 0,-1 1,-1 0,0 0,-1 0,-1 2,-2 3,-5 5,-7 2,-3 4,-6 6,-10 3,-3 5,-6 7,-9 3,-3 6,-5 8,-7 3,-3 6,-4 8,-6 3,-1 6,-1 8,-1 1,1 0,2 0,3 -1,2 -2,4 -4,6 -1,1 -3,3 -4,6 -2,2 -4,4 -6,6 -2,2 -3,4 -5,6 -2,2 -3,3 -3,4 -1,0 -1,1 -2,2 -1,1 -2,2 -3,4 -1,1 -2,3 -3,4 -1,2 -2,4 -3,5 -1,1 -2,3 -2,4 -1,1 -2,2 -2,2 -1,1 -2,3 -2,3 -1,1 -2,1 -3,1 -1,0 -1,0 -2,0 0,0 -1,-1 -2,-1z"/>
</g>
<g>
<path class="logo" fill="#fff" fill-opacity="0" d="M993 471c0,1 1,1 2,0 1,0 2,-2 3,-3 1,-2 2,-4 2,-6 1,-3 1,-5 1,-8 0,-2 0,-3 0,-5 -1,-1 -1,-3 -2,-4 0,-1 -1,-2 -2,-3 -1,0 -3,-1 -4,-1 -3,0 -5,2 -8,3 -2,1 -4,3 -5,4 -3,2 -5,4 -8,6 -3,3 -6,6 -8,9 -3,3 -6,6 -9,9 -3,4 -6,7 -8,10 -3,4 -5,7 -7,11 -2,3 -4,7 -5,10 -1,3 -2,6 -2,9 0,4 1,7 3,10 3,3 6,6 10,7 1,0 1,1 2,1 0,0 1,0 2,0 2,0 5,-1 8,-2 4,-1 7,-3 11,-4 3,-2 7,-4 11,-7 3,-2 7,-4 10,-6 2,-2 5,-4 7,-7 2,-1 3,-3 4,-4 0,-1 0,-2 0,-3 0,0 -1,-1 -1,-1 -1,-1 -1,-1 -2,-1 -1,-1 -2,-1 -2,0 -4,1 -7,3 -10,5 -3,3 -6,5 -9,8 -2,2 -4,3 -6,5 -2,2 -4,3 -6,5 -2,1 -4,2 -6,3 -3,1 -5,2 -7,3 -1,0 -3,0 -4,0 -2,0 -4,-1 -6,-2 -1,-2 -2,-4 -2,-6 0,-4 1,-7 2,-9 1,-4 2,-8 4,-11 2,-4 4,-8 7,-11 2,-4 5,-8 8,-11 3,-4 5,-7 9,-10 2,-3 5,-6 9,-8 2,-2 5,-4 8,-5 2,-1 5,-2 8,-2l0 0 0 1c1,0 1,1 1,1 0,0 0,1 0,1 0,2 -1,4 -1,5 0,2 -1,4 -1,6 0,2 -1,3 -1,5 0,1 0,2 0,3zm38 58c1,0 1,-1 2,-1 1,-1 1,-2 2,-3 1,-1 3,-2 4,-4 1,-1 2,-2 4,-3 1,-2 2,-3 3,-4 1,0 1,-1 2,-2 1,0 1,-1 2,-1 1,-1 2,-2 3,-3 1,-2 3,-3 4,-4 2,-1 3,-2 4,-4 2,0 3,-1 4,-2 1,-1 2,-1 3,-1l0 0 0 0c0,0 1,0 1,0 0,0 0,0 1,1l0 0 0 0c0,2 0,3 0,5 0,2 1,4 1,5 0,2 0,4 0,6 0,0 0,1 0,2l0 0 0 1c1,1 1,3 2,4 0,2 1,3 3,4 1,2 2,2 4,3 1,0 3,0 4,0 1,-1 1,-1 1,-1 -1,-1 -1,-2 -2,-3 0,-1 -1,-1 -1,-2 -1,-1 -1,-2 -2,-3 0,0 -1,-1 -1,-2 0,0 -1,-1 -1,-2 0,-1 0,-2 0,-4 0,-2 0,-3 0,-5 0,-2 0,-4 0,-6 0,-1 0,-3 0,-4 0,-2 -1,-4 -3,-5 -2,-1 -3,-2 -5,-2 -2,1 -4,2 -6,3 -2,1 -4,3 -6,4 -1,1 -3,3 -5,4 -2,1 -3,2 -5,3l-3 2 2 -3c0,-2 1,-3 2,-5 1,-2 3,-4 4,-6 1,-3 3,-5 4,-7 2,-3 3,-5 5,-8 1,-2 3,-4 4,-6 1,-2 2,-3 3,-5 0,0 1,-1 1,-1 0,0 0,-1 0,-1 1,-1 2,-2 2,-3 1,-2 2,-3 3,-4 1,-2 2,-3 3,-5 1,-1 2,-2 2,-3 0,-1 0,-1 0,-2 1,0 1,-1 1,-2 -1,0 -1,-2 -2,-2 -1,-1 -3,0 -3,1 -2,1 -4,3 -5,5 -2,3 -4,5 -6,8 -2,3 -4,6 -6,9 -1,3 -3,6 -5,10 -1,1 -2,3 -3,5 -1,1 -2,3 -3,4 0,1 -1,2 -1,3 -1,1 -2,2 -3,3 0,2 -1,3 -2,4 -1,2 -2,3 -2,5 -2,2 -3,4 -5,7 -1,1 -2,3 -2,4 -1,1 -1,2 -2,3 -1,2 -2,3 -2,5 -1,1 -2,3 -3,4 0,1 -1,2 -1,3 0,1 0,1 0,1 0,1 0,1 0,1l0 0c1,1 1,2 2,2 2,1 3,0 4,0zm83 0c2,1 4,1 7,1 2,0 5,0 7,-1 3,-1 6,-3 8,-4 2,-2 4,-4 6,-6 2,-3 4,-5 5,-8 2,-2 3,-5 4,-7 1,-3 1,-5 1,-8 0,-1 0,-3 -1,-5 0,-1 -1,-3 -2,-4 -2,-1 -3,-2 -5,-3 -2,0 -4,-1 -6,-1 -1,0 -2,0 -3,0 0,0 -1,0 -2,1 -1,0 -3,1 -4,2 -2,1 -4,2 -6,4 -2,2 -4,4 -6,7 -2,2 -4,4 -5,7 -2,2 -3,5 -4,8 -1,2 -1,4 -1,7 0,2 0,4 1,6 2,2 4,3 6,4zm0 -7c-1,-1 -1,-2 -1,-3 0,-3 1,-5 2,-8 2,-2 4,-4 5,-7 2,-2 5,-4 7,-6 2,-2 4,-4 6,-5 0,-1 1,-1 1,-2 0,0 1,0 1,0l0 -1 0 0c2,0 3,0 4,0 2,0 5,0 6,1 1,1 2,3 2,4 0,2 -1,4 -1,6 -1,3 -3,5 -4,7 -2,2 -4,4 -6,6 -2,2 -4,4 -6,6 -2,1 -4,2 -6,4 -2,0 -4,1 -6,1 -2,0 -4,-1 -4,-3zm140 -46c-3,0 -5,0 -7,1 -3,1 -6,3 -8,5 -3,3 -5,5 -8,8 -2,3 -5,6 -7,9 -2,3 -4,6 -6,9 -2,3 -3,5 -5,8 0,0 0,0 0,1 -1,0 -1,0 -1,0l0 1 -2 0 0 -1c0,0 0,-1 0,-1 0,0 0,-1 0,-1 0,-1 0,-2 0,-3 0,-1 1,-3 1,-4 0,-1 0,-2 0,-4 0,-1 0,-2 0,-4 0,-1 0,-2 0,-4 0,-1 -1,-2 -1,-3 0,-1 0,-1 -1,-2 0,0 -1,0 -2,0 -1,0 -4,2 -5,3 -1,2 -2,3 -4,5 -1,1 -2,2 -3,3l-1 3 0 0c-1,1 -2,2 -4,3 -1,2 -3,4 -5,6l-3 4 1 -5c1,0 1,-1 1,-1 0,-1 0,-1 0,-1 1,-2 1,-3 2,-4 0,-1 1,-3 1,-4 1,-1 1,-2 1,-3 1,-1 1,-2 1,-2 1,-1 1,-1 1,-2 0,0 0,-1 0,-1 0,-2 -1,-3 -1,-5 -1,-1 -2,-1 -3,-1 -2,0 -3,1 -3,3 -2,5 -4,10 -6,15 -1,4 -3,9 -4,14l0 0 -1 0c0,2 0,3 0,4 0,1 1,2 2,3 1,1 2,1 3,1 2,1 3,1 4,0 1,-1 3,-3 4,-4 1,-2 3,-3 4,-5 2,-2 4,-4 6,-6 1,-2 3,-4 5,-6l2 -1 0 2c0,2 0,4 0,6 1,1 1,3 1,5 1,2 2,4 2,5 1,2 2,3 4,4 0,0 1,1 2,1 0,0 0,0 1,0 1,0 1,0 2,0 1,-1 2,-3 2,-4 1,0 1,-1 2,-2 1,-1 1,-2 2,-4 1,-1 2,-3 3,-4 1,-2 2,-3 4,-5 0,-1 1,-2 2,-3 1,-1 1,-2 2,-3 1,-1 2,-3 3,-4 2,-2 4,-4 6,-6 1,-2 3,-4 5,-6 2,-2 3,-4 5,-6 1,-2 2,-3 3,-5 0,0 0,-1 1,-2z"/>
</g>
<g>
<path class="logo" fill="#fff" fill-opacity="0" d="M287 529c0,0 1,0 1,0 0,0 0,1 1,1 0,0 0,0 1,1 2,-4 4,-7 5,-11 1,-4 2,-8 3,-12 1,-3 1,-6 2,-9 1,-2 2,-5 3,-7l0 -1 0 0c4,-1 7,-2 10,-3 4,-1 8,-2 12,-3 4,-1 8,-1 12,-2 3,-1 7,-1 10,-1l2 0 1 1c0,0 -1,2 -1,2 0,2 -1,4 -1,7 -1,3 -2,6 -3,10 0,3 -1,7 -2,11 -1,3 -1,7 -2,10 0,2 0,5 0,7 0,0 1,0 1,0 0,0 1,0 1,0 1,0 1,0 1,-1 1,0 1,0 1,-1 1,-8 3,-16 5,-23 2,-8 5,-16 8,-23 1,-2 2,-3 3,-4 1,-2 2,-3 3,-4 1,-1 2,-2 3,-4 1,-1 2,-2 2,-3 1,-1 2,-2 2,-3 0,-1 0,-1 0,-2 0,-1 0,-1 -1,-1 0,-1 0,-1 -1,-2l0 0 0 -1c0,0 0,-1 0,-1 0,-1 1,-2 1,-2 0,-1 0,-2 1,-2 0,-1 0,-1 0,-2 0,0 1,-1 1,-1 0,-1 1,-2 1,-3 1,-1 1,-1 1,-2 1,0 1,-1 1,-1 0,-1 0,-3 0,-3 0,-2 -1,-3 -2,-4 0,-1 -1,-2 -1,-2 -1,0 -2,2 -2,3 -1,1 -1,2 -2,3 0,1 -1,2 -1,3 -2,4 -4,9 -6,13 -2,4 -4,7 -7,10 -3,3 -7,6 -10,8 -5,2 -11,3 -16,4 0,0 -1,0 -1,0 -1,0 -2,1 -2,1 -1,0 -3,0 -4,0 -1,1 -3,1 -4,1 -1,0 -3,1 -4,1 -1,0 -2,0 -4,0l-1 0 0 -1c0,-1 1,-3 1,-4 1,-2 1,-3 2,-5 0,-1 1,-3 2,-5 1,-2 2,-4 3,-6 1,-3 3,-7 4,-11 1,-2 2,-5 2,-8 0,-1 0,-2 -1,-3 -1,0 -3,0 -4,1 0,1 -1,3 -2,4 -1,2 -2,5 -3,7 -1,2 -2,5 -3,8 -1,2 -2,5 -3,7 -1,3 -2,5 -3,8 -1,2 -2,4 -3,6 0,1 -1,3 -2,4 -1,3 -2,5 -3,7 -1,3 -2,6 -3,9 -1,3 -2,6 -3,9 -1,3 -1,6 -2,8 0,3 -1,5 -1,7 0,1 0,2 1,3 0,1 0,1 0,2zm-245 -4l0 1c0,0 1,1 1,2 0,0 1,1 1,1 1,0 1,0 2,0 0,0 1,0 2,0 2,-11 6,-22 10,-33 4,-10 8,-21 12,-31 1,-1 2,-3 2,-4 1,-1 1,-3 2,-4 0,-1 0,-1 0,-2 1,-1 1,-1 1,-2 0,-2 -1,-3 -1,-5 0,-1 -1,-2 -1,-3 0,0 -1,0 -1,0 -1,0 -2,3 -2,3 -5,12 -9,23 -13,34 -5,12 -9,23 -13,34 0,1 -1,1 -1,2 0,1 0,2 0,3 -1,1 -1,2 -1,3 0,0 0,1 0,1zm46 -41c1,0 2,1 3,1 1,-1 2,-2 2,-4 1,-2 2,-4 2,-6 1,-3 1,-5 1,-7 0,-2 0,-4 -1,-6 0,0 0,-1 -1,-1 -2,0 -3,4 -4,5 0,1 0,1 0,2 -1,1 -1,2 -1,2 0,1 -1,2 -1,3 0,0 0,1 0,1 -1,1 -1,1 -1,2 0,1 0,2 0,3 0,1 0,2 0,3 1,0 1,1 1,2zm68 15c0,1 -1,3 -1,5 -1,2 -2,4 -2,6 -1,2 -1,4 -1,6 -1,2 -1,4 -1,6 0,1 0,3 1,4 1,1 3,1 4,1 1,-2 2,-3 4,-4 2,-3 4,-5 7,-7 3,-3 6,-6 9,-8 3,-3 6,-6 9,-8 3,-2 5,-5 8,-7 1,-1 4,-2 6,-3l1 0 0 2 0 0c-1,2 -2,3 -2,4 -1,2 -2,4 -3,6 -1,2 -2,4 -3,6 -1,2 -2,3 -2,5 -1,1 -2,3 -2,4 -1,2 -1,4 -1,5 0,1 0,2 0,3 0,0 0,1 0,1l1 0 0 1c0,0 1,0 1,0 0,1 1,1 2,2 0,0 1,1 2,1 0,0 0,0 1,0 0,-3 0,-6 1,-9 0,-3 1,-6 3,-9 1,-3 2,-6 3,-9 2,-2 3,-5 5,-8 0,-1 1,-2 1,-3 1,-1 2,-2 2,-3 0,-1 0,-1 0,-2 1,0 1,-1 1,-1 0,-2 -1,-3 -2,-4 0,-1 -2,-2 -3,-2 -1,0 -2,1 -3,1l-1 1 0 0c-1,0 -1,0 -2,1 -1,0 -2,1 -4,2 -1,1 -2,1 -3,2l2 0 -4 2c-1,0 -2,1 -2,2 -2,1 -3,2 -5,3 -2,1 -3,2 -5,4 -1,1 -2,2 -4,3 0,0 -1,1 -2,1 -1,1 -2,2 -3,3 -1,1 -2,1 -3,2 -1,1 -1,1 -2,2l-2 1 0 -4c0,-2 1,-4 1,-7 0,-1 1,-2 1,-3l0 0 0 -3c1,-2 1,-3 1,-5 1,-1 1,-2 1,-3 0,0 0,-1 -1,-2 0,0 -1,0 -2,0 0,0 -1,0 -2,1 -1,0 -3,1 -4,2 -2,2 -4,3 -6,5 -3,2 -5,4 -8,7l-4 3 2 -4c1,-1 1,-2 1,-2 1,-1 1,-1 1,-2 1,-1 1,-1 2,-2 0,-1 1,-2 1,-3 0,-1 0,-2 0,-3 0,-1 0,-2 0,-3l-3 0c0,1 -1,1 -1,1 -1,1 -1,2 -2,3 -1,2 -2,3 -3,4 0,1 -1,2 -1,3l-2 4 0 0c-1,2 -2,3 -3,5 -1,2 -2,4 -3,7 -1,2 -2,4 -4,6 0,2 -1,4 -2,5 -1,2 -1,3 -2,4 0,0 0,1 0,1 0,0 0,1 0,1 1,1 2,2 4,2 1,0 2,0 3,-1 1,-1 2,-2 3,-3 2,-2 3,-3 4,-5 2,-2 3,-4 4,-6 2,-2 3,-4 5,-6 1,-2 3,-3 4,-5 1,-2 3,-3 4,-4 2,-1 3,-2 5,-2l3 -1 -2 2c0,0 0,0 0,0 -1,1 -1,1 -1,2zm314 4c-2,1 -4,2 -7,4 -3,1 -6,3 -9,4 -3,2 -6,3 -9,4 -2,1 -4,1 -7,1 0,0 0,0 0,0 0,0 0,0 -1,0 0,0 0,0 -1,0 0,0 0,0 0,0 -2,-1 -3,-2 -3,-5 -1,-2 0,-5 0,-8 1,-3 2,-5 3,-8 1,-2 2,-4 2,-6 1,-2 1,-4 1,-7 0,-1 0,-3 0,-4 -1,-2 -2,-3 -3,-4 -1,-2 -3,-4 -5,-5 -2,-1 -4,-1 -6,-1 -3,0 -6,1 -8,2 -4,2 -7,5 -9,7 -3,3 -6,6 -8,10 -3,3 -5,7 -7,11 -2,3 -4,7 -5,11 -1,3 -1,6 -1,10 0,1 0,3 0,5 1,1 2,3 3,4 2,2 5,3 9,3 2,0 4,-1 6,-1 2,-2 5,-3 7,-4 2,-2 4,-4 5,-5 2,-2 4,-4 6,-6 0,0 1,-1 2,-2l0 0 1 0c0,1 1,1 1,1 0,0 0,1 0,1 0,0 0,0 0,0l0 0 0 0c1,3 2,5 4,6 3,2 6,2 8,2 4,0 7,-1 11,-2 3,-2 7,-3 10,-5 4,-2 7,-4 9,-6 2,-1 5,-3 6,-5 0,0 1,-2 1,-2 -1,-1 -5,-1 -6,0zm-78 20c0,-1 0,-2 0,-2 0,-3 1,-6 2,-9 1,-3 3,-7 5,-10 2,-4 4,-7 6,-11 2,-3 5,-6 8,-9 2,-2 5,-5 7,-7 2,-1 5,-2 7,-2 1,0 2,0 2,0l1 0 0 1c0,0 0,1 0,2 0,0 0,1 0,1 0,4 -1,8 -2,12 -1,4 -3,8 -5,11 -1,4 -4,7 -6,10 -2,3 -5,6 -8,8 -2,2 -4,4 -7,6 -2,1 -4,2 -6,2 -2,0 -3,-1 -4,-3zm94 6l1 0 0 1c0,0 0,0 0,0 0,0 1,0 1,0 1,0 2,-1 2,-2 2,-2 3,-5 4,-7 2,-3 3,-5 5,-8 1,-3 3,-6 5,-9 2,-3 4,-6 7,-9 2,-3 5,-6 7,-8 3,-2 6,-4 9,-6 3,-1 6,-2 9,-2 1,-1 2,-3 2,-4 0,0 -1,-1 -1,-1 -1,-1 -3,-1 -4,-1 -1,0 -3,0 -5,0 -1,1 -3,1 -5,2 -1,0 -3,1 -5,1 0,0 -1,1 -2,1 -3,2 -6,4 -8,7 -3,3 -5,5 -7,8l-1 1 -1 -1c0,0 0,0 0,0 -1,0 -1,-1 -1,-1 0,-1 -1,-1 -1,-2 0,0 -1,0 -1,-1 0,0 -1,0 -1,0 0,0 -1,1 -1,1 -1,1 -2,3 -2,4 -1,3 -2,6 -2,8 -1,4 -2,7 -2,10 -1,3 -1,6 -2,9 0,3 0,5 0,7 0,1 0,2 0,2zm72 0l1 0 0 1c0,0 0,0 0,0 1,0 1,0 1,0 1,0 2,-1 3,-2 1,-2 3,-5 4,-7 1,-3 3,-5 4,-8 2,-3 4,-6 6,-9 2,-3 4,-6 6,-9 2,-3 5,-6 8,-8 2,-2 5,-4 8,-6 3,-1 6,-2 10,-2 0,-1 1,-3 1,-4 0,0 0,-1 -1,-1 -1,-1 -2,-1 -3,-1 -2,0 -4,0 -5,0 -2,1 -4,1 -6,2 -1,0 -3,1 -4,1 -1,0 -2,1 -3,1 -3,2 -5,4 -8,7 -2,3 -5,5 -7,8l-1 1 0 -1c-1,0 -1,0 -1,0 0,0 0,-1 0,-1 -1,-1 -1,-1 -2,-2 0,0 0,0 -1,-1 0,0 0,0 0,0 -1,0 -1,1 -2,1 -1,1 -1,3 -2,4 -1,3 -1,6 -2,8 -1,4 -1,7 -2,10 0,3 -1,6 -1,9 0,3 -1,5 -1,7 0,1 0,2 0,2zm69 -1l0 1c1,1 1,1 2,2 1,0 2,0 3,-1 3,-5 6,-11 9,-17 1,-4 3,-9 4,-14 1,-2 2,-6 1,-8 0,0 0,-2 0,-2 -1,0 -2,1 -3,2 -1,2 -3,4 -4,7 -2,4 -4,8 -6,12 -2,6 -4,12 -6,18zm20 -54c0,1 1,2 2,3 1,0 1,1 2,1 1,0 2,-1 2,-2 1,-1 2,-2 2,-3 0,-2 -1,-3 -1,-4 -1,-1 -3,-1 -4,-1 0,0 -1,0 -1,0 -1,1 -1,1 -2,1 0,0 0,0 0,1 0,0 0,1 0,1 0,1 0,1 0,2 0,0 0,0 0,1l0 0 0 0zm26 54l1 1c0,0 3,0 3,0 3,-1 6,-2 8,-3 4,-1 7,-2 10,-4 3,-1 7,-3 10,-5 2,-2 5,-4 7,-6 1,-1 3,-3 3,-5 0,-2 -1,-3 -2,-4 -1,-1 -3,-2 -4,-3 -3,-1 -6,-2 -9,-3 -4,-1 -8,-2 -13,-2l-2 0 2 -2c3,-2 5,-3 8,-5 3,-1 6,-3 9,-5 1,0 2,-1 3,-1 2,-1 3,-2 4,-2 1,-1 2,-2 2,-3 0,-1 -1,-1 -1,-1 0,-1 -1,-2 -1,-2 -1,0 -2,-1 -3,-1 0,0 -1,0 -2,0 -2,1 -4,2 -6,2 -2,2 -5,3 -7,5 -2,1 -5,3 -7,4 -1,1 -3,2 -5,3l0 1 0 0c-2,1 -3,2 -4,3 0,1 -1,2 -1,3 0,1 0,1 1,2 1,1 2,1 3,2 2,0 3,1 5,1 2,0 4,1 6,1 1,0 3,0 5,1 1,0 3,0 4,1 2,0 3,0 4,1 1,0 2,1 2,2 0,2 -3,5 -4,6l0 0 0 0c-1,0 -2,1 -3,1 -1,1 -1,1 -2,1l1 0 -4 2c-2,1 -4,2 -6,3 -2,1 -4,1 -6,2 -2,1 -3,2 -5,3 -1,1 -2,2 -3,3 -1,1 -1,2 -1,3 0,0 0,0 0,0zm68 1c2,1 5,1 7,1 3,0 5,0 8,-1 2,-1 5,-3 7,-4 3,-2 5,-4 7,-6 2,-3 3,-5 5,-8 1,-2 2,-5 3,-7 1,-3 1,-5 1,-8 0,-1 0,-3 0,-5 -1,-1 -2,-3 -3,-4 -1,-1 -3,-2 -4,-3 -2,0 -5,-1 -7,-1 -1,0 -1,0 -2,0 -1,0 -2,0 -2,1 -2,0 -4,1 -5,2 -2,1 -4,2 -6,4 -2,2 -4,4 -6,7 -2,2 -3,4 -5,7 -1,2 -3,5 -4,8 0,2 -1,4 -1,7 0,2 1,4 2,6 1,2 3,3 5,4zm0 -7c0,-1 0,-2 0,-3 0,-3 1,-5 2,-8 1,-2 3,-4 5,-7 2,-2 4,-4 6,-6 2,-2 4,-4 6,-5 1,-1 1,-1 1,-2 1,0 1,0 1,0l1 -1 0 0c1,0 3,0 4,0 2,0 4,0 6,1 1,1 2,3 2,4 0,2 -1,4 -2,6 -1,3 -2,5 -4,7 -2,2 -3,4 -5,6 -2,2 -4,4 -7,6 -2,1 -4,2 -6,4 -2,0 -4,1 -6,1 -2,0 -3,-1 -4,-3zm101 6l0 1c0,0 0,0 0,0 1,1 1,1 2,1 0,0 0,1 1,1 0,0 1,-1 1,-1 1,-1 1,-2 2,-3 0,-1 0,-2 0,-4l0 0 0 0c0,0 0,0 0,0 0,-1 0,-1 0,-1 0,-1 0,-1 1,-1 0,-1 1,-3 1,-4 1,-2 2,-4 3,-6 0,-1 1,-2 2,-3 0,-1 0,-3 1,-4 0,-1 1,-1 1,-2 0,-1 0,-1 1,-2l0 0c1,-2 2,-5 3,-8 0,-2 1,-4 1,-6 0,-1 -1,-3 -2,-5 -1,-1 -3,-1 -4,-1 -3,0 -5,1 -8,2 -3,1 -6,2 -8,4 -3,1 -6,3 -9,5 -3,2 -5,3 -8,5l-2 1 1 -2c0,-1 0,-1 0,-1 1,-1 1,-1 1,-2 0,0 0,-1 1,-2 0,-1 0,-2 0,-3 0,-1 0,-1 -1,-2 0,-1 -1,-2 -2,-3 -1,1 -1,2 -2,3 -1,2 -3,5 -4,8 -2,3 -4,6 -5,9 -2,4 -4,7 -5,10 -2,3 -3,5 -4,8 -1,0 -1,1 -2,2 1,1 1,2 2,2 2,1 4,-1 5,-1 2,-2 5,-4 7,-6 2,-2 5,-5 8,-8 2,-2 5,-5 8,-8 3,-3 6,-5 9,-8 2,-2 5,-3 8,-5 2,-1 5,-2 7,-2l1 0 0 1c0,1 0,2 0,3 0,3 -1,6 -2,8 -1,3 -2,6 -4,9 -1,2 -2,3 -2,5 -1,2 -2,4 -3,6 0,1 -1,3 -1,5 0,2 0,4 0,5z"/>
</g>

</svg>
